<mxfile host="app.diagrams.net" modified="2023-12-20T19:05:51.156Z" agent="Mozilla/5.0 (Windows NT 10.0; Win64; x64) AppleWebKit/537.36 (KHTML, like Gecko) Chrome/117.0.0.0 Safari/537.36" etag="id0yzVsXaZkWsrv1K2EQ" version="22.1.11" type="device" pages="2">
  <diagram name="Trang-1" id="SUtpHRZysYcwdnRIezqp">
    <mxGraphModel dx="1972" dy="811" grid="1" gridSize="10" guides="1" tooltips="1" connect="1" arrows="1" fold="1" page="1" pageScale="1" pageWidth="827" pageHeight="1169" math="0" shadow="0">
      <root>
        <mxCell id="0" />
        <mxCell id="1" parent="0" />
        <mxCell id="XliUAWEANQiwk1mUZGUS-1" value="Quản Trị Viên" style="shape=umlActor;verticalLabelPosition=bottom;verticalAlign=top;html=1;outlineConnect=0;" parent="1" vertex="1">
          <mxGeometry x="950" y="450" width="60" height="90" as="geometry" />
        </mxCell>
        <mxCell id="sksLSkYZdCt6uy0x5Zyz-1" value="Giáo viên" style="shape=umlActor;verticalLabelPosition=bottom;verticalAlign=top;html=1;outlineConnect=0;" parent="1" vertex="1">
          <mxGeometry x="-80" y="230" width="60" height="90" as="geometry" />
        </mxCell>
        <mxCell id="sksLSkYZdCt6uy0x5Zyz-2" value="Học sinh" style="shape=umlActor;verticalLabelPosition=bottom;verticalAlign=top;html=1;outlineConnect=0;" parent="1" vertex="1">
          <mxGeometry x="-90" y="690" width="60" height="90" as="geometry" />
        </mxCell>
        <mxCell id="sksLSkYZdCt6uy0x5Zyz-5" value="" style="rounded=0;whiteSpace=wrap;html=1;fillColor=#d5e8d4;strokeColor=#82b366;" parent="1" vertex="1">
          <mxGeometry x="60" y="50" width="810" height="810" as="geometry" />
        </mxCell>
        <mxCell id="sksLSkYZdCt6uy0x5Zyz-9" value="Đăng Xuất" style="ellipse;whiteSpace=wrap;html=1;fillColor=#dae8fc;strokeColor=#6c8ebf;" parent="1" vertex="1">
          <mxGeometry x="110" y="100" width="120" height="80" as="geometry" />
        </mxCell>
        <mxCell id="sksLSkYZdCt6uy0x5Zyz-10" value="" style="endArrow=classic;html=1;rounded=0;entryX=0.038;entryY=0.666;entryDx=0;entryDy=0;entryPerimeter=0;startArrow=none;startFill=0;endFill=1;" parent="1" source="sksLSkYZdCt6uy0x5Zyz-2" target="sksLSkYZdCt6uy0x5Zyz-9" edge="1">
          <mxGeometry width="50" height="50" relative="1" as="geometry">
            <mxPoint x="-20" y="520" as="sourcePoint" />
            <mxPoint x="340" y="580" as="targetPoint" />
          </mxGeometry>
        </mxCell>
        <mxCell id="sksLSkYZdCt6uy0x5Zyz-12" value="" style="endArrow=classic;html=1;rounded=0;entryX=0;entryY=0.5;entryDx=0;entryDy=0;endFill=1;" parent="1" source="sksLSkYZdCt6uy0x5Zyz-1" target="sksLSkYZdCt6uy0x5Zyz-9" edge="1">
          <mxGeometry width="50" height="50" relative="1" as="geometry">
            <mxPoint x="-20" y="720" as="sourcePoint" />
            <mxPoint x="168" y="248" as="targetPoint" />
          </mxGeometry>
        </mxCell>
        <mxCell id="sksLSkYZdCt6uy0x5Zyz-14" value="" style="endArrow=none;html=1;rounded=0;entryX=0;entryY=0.3333333333333333;entryDx=0;entryDy=0;entryPerimeter=0;startArrow=classic;startFill=1;" parent="1" source="sksLSkYZdCt6uy0x5Zyz-9" target="XliUAWEANQiwk1mUZGUS-1" edge="1">
          <mxGeometry width="50" height="50" relative="1" as="geometry">
            <mxPoint x="430" y="500" as="sourcePoint" />
            <mxPoint x="480" y="450" as="targetPoint" />
          </mxGeometry>
        </mxCell>
        <mxCell id="sksLSkYZdCt6uy0x5Zyz-19" value="Quản lý câu hỏi" style="ellipse;whiteSpace=wrap;html=1;fillColor=#dae8fc;strokeColor=#6c8ebf;" parent="1" vertex="1">
          <mxGeometry x="200" y="310" width="120" height="80" as="geometry" />
        </mxCell>
        <mxCell id="sksLSkYZdCt6uy0x5Zyz-20" value="Đăng Nhập" style="ellipse;whiteSpace=wrap;html=1;fillColor=#dae8fc;strokeColor=#6c8ebf;" parent="1" vertex="1">
          <mxGeometry x="450" y="560" width="120" height="80" as="geometry" />
        </mxCell>
        <mxCell id="sksLSkYZdCt6uy0x5Zyz-22" value="" style="endArrow=classic;html=1;rounded=0;entryX=0;entryY=0.5;entryDx=0;entryDy=0;exitX=1;exitY=0.3333333333333333;exitDx=0;exitDy=0;exitPerimeter=0;endFill=1;" parent="1" source="sksLSkYZdCt6uy0x5Zyz-1" target="sksLSkYZdCt6uy0x5Zyz-19" edge="1">
          <mxGeometry width="50" height="50" relative="1" as="geometry">
            <mxPoint x="310" y="610" as="sourcePoint" />
            <mxPoint x="360" y="560" as="targetPoint" />
          </mxGeometry>
        </mxCell>
        <mxCell id="sksLSkYZdCt6uy0x5Zyz-23" value="" style="endArrow=none;dashed=1;html=1;dashPattern=1 3;strokeWidth=2;rounded=0;entryX=1;entryY=1;entryDx=0;entryDy=0;endFill=0;startArrow=classic;startFill=1;" parent="1" source="sksLSkYZdCt6uy0x5Zyz-20" target="sksLSkYZdCt6uy0x5Zyz-19" edge="1">
          <mxGeometry width="50" height="50" relative="1" as="geometry">
            <mxPoint x="310" y="610" as="sourcePoint" />
            <mxPoint x="360" y="560" as="targetPoint" />
          </mxGeometry>
        </mxCell>
        <mxCell id="sksLSkYZdCt6uy0x5Zyz-24" value="&amp;lt;&amp;lt;include&amp;gt;&amp;gt;" style="edgeLabel;html=1;align=center;verticalAlign=middle;resizable=0;points=[];" parent="sksLSkYZdCt6uy0x5Zyz-23" vertex="1" connectable="0">
          <mxGeometry x="0.229" y="2" relative="1" as="geometry">
            <mxPoint as="offset" />
          </mxGeometry>
        </mxCell>
        <mxCell id="sksLSkYZdCt6uy0x5Zyz-26" value="Thi Trắc Nghiệm" style="ellipse;whiteSpace=wrap;html=1;fillColor=#dae8fc;strokeColor=#6c8ebf;" parent="1" vertex="1">
          <mxGeometry x="160" y="695" width="120" height="80" as="geometry" />
        </mxCell>
        <mxCell id="sksLSkYZdCt6uy0x5Zyz-27" value="" style="endArrow=classic;html=1;rounded=0;exitX=1;exitY=0.3333333333333333;exitDx=0;exitDy=0;exitPerimeter=0;entryX=0;entryY=0.5;entryDx=0;entryDy=0;endFill=1;" parent="1" source="sksLSkYZdCt6uy0x5Zyz-2" target="sksLSkYZdCt6uy0x5Zyz-26" edge="1">
          <mxGeometry width="50" height="50" relative="1" as="geometry">
            <mxPoint x="280" y="540" as="sourcePoint" />
            <mxPoint x="330" y="490" as="targetPoint" />
          </mxGeometry>
        </mxCell>
        <mxCell id="sksLSkYZdCt6uy0x5Zyz-28" value="Tra cứu kết quả" style="ellipse;whiteSpace=wrap;html=1;fillColor=#dae8fc;strokeColor=#6c8ebf;" parent="1" vertex="1">
          <mxGeometry x="210" y="440" width="120" height="80" as="geometry" />
        </mxCell>
        <mxCell id="sksLSkYZdCt6uy0x5Zyz-29" value="" style="endArrow=classic;html=1;rounded=0;entryX=0;entryY=0.5;entryDx=0;entryDy=0;endFill=1;" parent="1" source="sksLSkYZdCt6uy0x5Zyz-2" target="sksLSkYZdCt6uy0x5Zyz-28" edge="1">
          <mxGeometry width="50" height="50" relative="1" as="geometry">
            <mxPoint x="360" y="620" as="sourcePoint" />
            <mxPoint x="410" y="570" as="targetPoint" />
          </mxGeometry>
        </mxCell>
        <mxCell id="sksLSkYZdCt6uy0x5Zyz-30" value="" style="endArrow=none;dashed=1;html=1;dashPattern=1 3;strokeWidth=2;rounded=0;endFill=0;startArrow=classic;startFill=1;entryX=0.817;entryY=0.938;entryDx=0;entryDy=0;entryPerimeter=0;" parent="1" source="sksLSkYZdCt6uy0x5Zyz-20" target="sksLSkYZdCt6uy0x5Zyz-28" edge="1">
          <mxGeometry width="50" height="50" relative="1" as="geometry">
            <mxPoint x="427" y="818" as="sourcePoint" />
            <mxPoint x="232" y="778" as="targetPoint" />
          </mxGeometry>
        </mxCell>
        <mxCell id="sksLSkYZdCt6uy0x5Zyz-31" value="&amp;lt;&amp;lt;include&amp;gt;&amp;gt;" style="edgeLabel;html=1;align=center;verticalAlign=middle;resizable=0;points=[];" parent="sksLSkYZdCt6uy0x5Zyz-30" vertex="1" connectable="0">
          <mxGeometry x="0.229" y="2" relative="1" as="geometry">
            <mxPoint as="offset" />
          </mxGeometry>
        </mxCell>
        <mxCell id="sksLSkYZdCt6uy0x5Zyz-32" value="" style="endArrow=none;dashed=1;html=1;dashPattern=1 3;strokeWidth=2;rounded=0;entryX=0.95;entryY=0.696;entryDx=0;entryDy=0;endFill=0;startArrow=classic;startFill=1;entryPerimeter=0;" parent="1" source="sksLSkYZdCt6uy0x5Zyz-20" target="sksLSkYZdCt6uy0x5Zyz-26" edge="1">
          <mxGeometry width="50" height="50" relative="1" as="geometry">
            <mxPoint x="490" y="620" as="sourcePoint" />
            <mxPoint x="242" y="788" as="targetPoint" />
          </mxGeometry>
        </mxCell>
        <mxCell id="sksLSkYZdCt6uy0x5Zyz-33" value="&amp;lt;&amp;lt;include&amp;gt;&amp;gt;" style="edgeLabel;html=1;align=center;verticalAlign=middle;resizable=0;points=[];" parent="sksLSkYZdCt6uy0x5Zyz-32" vertex="1" connectable="0">
          <mxGeometry x="0.229" y="2" relative="1" as="geometry">
            <mxPoint as="offset" />
          </mxGeometry>
        </mxCell>
        <mxCell id="sksLSkYZdCt6uy0x5Zyz-35" value="" style="endArrow=none;html=1;rounded=0;exitX=1;exitY=0.5;exitDx=0;exitDy=0;endFill=0;startArrow=classic;startFill=1;" parent="1" source="sksLSkYZdCt6uy0x5Zyz-19" target="XliUAWEANQiwk1mUZGUS-1" edge="1">
          <mxGeometry width="50" height="50" relative="1" as="geometry">
            <mxPoint x="700" y="660" as="sourcePoint" />
            <mxPoint x="750" y="610" as="targetPoint" />
          </mxGeometry>
        </mxCell>
        <mxCell id="sksLSkYZdCt6uy0x5Zyz-41" value="Quản Lý Môn Học" style="ellipse;whiteSpace=wrap;html=1;fillColor=#dae8fc;strokeColor=#6c8ebf;" parent="1" vertex="1">
          <mxGeometry x="720" y="280" width="120" height="80" as="geometry" />
        </mxCell>
        <mxCell id="sksLSkYZdCt6uy0x5Zyz-42" value="" style="endArrow=classic;html=1;rounded=0;entryX=1;entryY=0.5;entryDx=0;entryDy=0;" parent="1" source="XliUAWEANQiwk1mUZGUS-1" target="sksLSkYZdCt6uy0x5Zyz-41" edge="1">
          <mxGeometry width="50" height="50" relative="1" as="geometry">
            <mxPoint x="420" y="640" as="sourcePoint" />
            <mxPoint x="470" y="590" as="targetPoint" />
          </mxGeometry>
        </mxCell>
        <mxCell id="XRTRLFMjSl1A3E3SzHaw-1" style="rounded=0;orthogonalLoop=1;jettySize=auto;html=1;startArrow=classic;startFill=0;endArrow=none;endFill=0;" parent="1" source="sksLSkYZdCt6uy0x5Zyz-43" target="sksLSkYZdCt6uy0x5Zyz-1" edge="1">
          <mxGeometry relative="1" as="geometry">
            <Array as="points">
              <mxPoint x="170" y="560" />
            </Array>
          </mxGeometry>
        </mxCell>
        <mxCell id="sksLSkYZdCt6uy0x5Zyz-43" value="Quản Lý Đề Thi" style="ellipse;whiteSpace=wrap;html=1;fillColor=#dae8fc;strokeColor=#6c8ebf;" parent="1" vertex="1">
          <mxGeometry x="440" y="720" width="120" height="80" as="geometry" />
        </mxCell>
        <mxCell id="sksLSkYZdCt6uy0x5Zyz-44" value="Quản Lý Giảng VIên" style="ellipse;whiteSpace=wrap;html=1;fillColor=#dae8fc;strokeColor=#6c8ebf;" parent="1" vertex="1">
          <mxGeometry x="660" y="760" width="120" height="80" as="geometry" />
        </mxCell>
        <mxCell id="sksLSkYZdCt6uy0x5Zyz-45" value="" style="endArrow=classic;html=1;rounded=0;entryX=1;entryY=0.5;entryDx=0;entryDy=0;" parent="1" source="XliUAWEANQiwk1mUZGUS-1" target="sksLSkYZdCt6uy0x5Zyz-43" edge="1">
          <mxGeometry width="50" height="50" relative="1" as="geometry">
            <mxPoint x="590" y="550" as="sourcePoint" />
            <mxPoint x="640" y="500" as="targetPoint" />
          </mxGeometry>
        </mxCell>
        <mxCell id="sksLSkYZdCt6uy0x5Zyz-46" value="" style="endArrow=classic;html=1;rounded=0;entryX=1;entryY=0.5;entryDx=0;entryDy=0;" parent="1" source="XliUAWEANQiwk1mUZGUS-1" target="sksLSkYZdCt6uy0x5Zyz-44" edge="1">
          <mxGeometry width="50" height="50" relative="1" as="geometry">
            <mxPoint x="590" y="550" as="sourcePoint" />
            <mxPoint x="640" y="500" as="targetPoint" />
          </mxGeometry>
        </mxCell>
        <mxCell id="sksLSkYZdCt6uy0x5Zyz-47" value="" style="endArrow=none;dashed=1;html=1;rounded=0;exitX=1;exitY=0;exitDx=0;exitDy=0;entryX=0;entryY=0.5;entryDx=0;entryDy=0;endFill=0;startArrow=classic;startFill=1;" parent="1" source="sksLSkYZdCt6uy0x5Zyz-20" target="sksLSkYZdCt6uy0x5Zyz-41" edge="1">
          <mxGeometry width="50" height="50" relative="1" as="geometry">
            <mxPoint x="590" y="630" as="sourcePoint" />
            <mxPoint x="640" y="580" as="targetPoint" />
          </mxGeometry>
        </mxCell>
        <mxCell id="sksLSkYZdCt6uy0x5Zyz-48" value="&amp;lt;&amp;lt;include&amp;gt;&amp;gt;" style="edgeLabel;html=1;align=center;verticalAlign=middle;resizable=0;points=[];" parent="sksLSkYZdCt6uy0x5Zyz-47" vertex="1" connectable="0">
          <mxGeometry x="-0.148" y="2" relative="1" as="geometry">
            <mxPoint as="offset" />
          </mxGeometry>
        </mxCell>
        <mxCell id="sksLSkYZdCt6uy0x5Zyz-51" value="" style="endArrow=none;dashed=1;html=1;rounded=0;endFill=0;startArrow=classic;startFill=1;" parent="1" source="sksLSkYZdCt6uy0x5Zyz-20" target="sksLSkYZdCt6uy0x5Zyz-43" edge="1">
          <mxGeometry width="50" height="50" relative="1" as="geometry">
            <mxPoint x="512" y="592" as="sourcePoint" />
            <mxPoint x="700" y="430" as="targetPoint" />
          </mxGeometry>
        </mxCell>
        <mxCell id="sksLSkYZdCt6uy0x5Zyz-52" value="&amp;lt;&amp;lt;include&amp;gt;&amp;gt;" style="edgeLabel;html=1;align=center;verticalAlign=middle;resizable=0;points=[];" parent="sksLSkYZdCt6uy0x5Zyz-51" vertex="1" connectable="0">
          <mxGeometry x="-0.148" y="2" relative="1" as="geometry">
            <mxPoint as="offset" />
          </mxGeometry>
        </mxCell>
        <mxCell id="sksLSkYZdCt6uy0x5Zyz-53" value="" style="endArrow=none;dashed=1;html=1;rounded=0;exitX=0.94;exitY=0.733;exitDx=0;exitDy=0;entryX=0;entryY=0.5;entryDx=0;entryDy=0;endFill=0;exitPerimeter=0;startArrow=classic;startFill=1;" parent="1" source="sksLSkYZdCt6uy0x5Zyz-20" target="sksLSkYZdCt6uy0x5Zyz-44" edge="1">
          <mxGeometry width="50" height="50" relative="1" as="geometry">
            <mxPoint x="522" y="602" as="sourcePoint" />
            <mxPoint x="710" y="440" as="targetPoint" />
          </mxGeometry>
        </mxCell>
        <mxCell id="sksLSkYZdCt6uy0x5Zyz-54" value="&amp;lt;&amp;lt;include&amp;gt;&amp;gt;" style="edgeLabel;html=1;align=center;verticalAlign=middle;resizable=0;points=[];" parent="sksLSkYZdCt6uy0x5Zyz-53" vertex="1" connectable="0">
          <mxGeometry x="-0.148" y="2" relative="1" as="geometry">
            <mxPoint as="offset" />
          </mxGeometry>
        </mxCell>
        <mxCell id="5PdgZUG-WtJZ_N_17yhF-7" style="rounded=0;orthogonalLoop=1;jettySize=auto;html=1;dashed=1;" parent="1" source="5PdgZUG-WtJZ_N_17yhF-5" target="sksLSkYZdCt6uy0x5Zyz-20" edge="1">
          <mxGeometry relative="1" as="geometry" />
        </mxCell>
        <mxCell id="5PdgZUG-WtJZ_N_17yhF-8" value="&amp;lt;&amp;lt;include&amp;gt;&amp;gt;" style="edgeLabel;html=1;align=center;verticalAlign=middle;resizable=0;points=[];" parent="5PdgZUG-WtJZ_N_17yhF-7" vertex="1" connectable="0">
          <mxGeometry x="-0.3932" y="-2" relative="1" as="geometry">
            <mxPoint as="offset" />
          </mxGeometry>
        </mxCell>
        <mxCell id="5PdgZUG-WtJZ_N_17yhF-5" value="Quản Lý Chương" style="ellipse;whiteSpace=wrap;html=1;fillColor=#dae8fc;strokeColor=#6c8ebf;" parent="1" vertex="1">
          <mxGeometry x="720" y="160" width="120" height="80" as="geometry" />
        </mxCell>
        <mxCell id="5PdgZUG-WtJZ_N_17yhF-6" style="rounded=0;orthogonalLoop=1;jettySize=auto;html=1;exitX=0.25;exitY=0.1;exitDx=0;exitDy=0;exitPerimeter=0;" parent="1" source="XliUAWEANQiwk1mUZGUS-1" target="5PdgZUG-WtJZ_N_17yhF-5" edge="1">
          <mxGeometry relative="1" as="geometry" />
        </mxCell>
        <mxCell id="ZFWCI6rbcMhGmqInNy1j-1" style="rounded=0;orthogonalLoop=1;jettySize=auto;html=1;" parent="1" source="sksLSkYZdCt6uy0x5Zyz-1" target="sksLSkYZdCt6uy0x5Zyz-28" edge="1">
          <mxGeometry relative="1" as="geometry" />
        </mxCell>
        <mxCell id="ZFWCI6rbcMhGmqInNy1j-3" style="edgeStyle=orthogonalEdgeStyle;rounded=0;orthogonalLoop=1;jettySize=auto;html=1;endArrow=none;endFill=0;startArrow=classic;startFill=1;" parent="1" source="ZFWCI6rbcMhGmqInNy1j-2" target="XliUAWEANQiwk1mUZGUS-1" edge="1">
          <mxGeometry relative="1" as="geometry" />
        </mxCell>
        <mxCell id="ZFWCI6rbcMhGmqInNy1j-4" style="rounded=0;orthogonalLoop=1;jettySize=auto;html=1;dashed=1;" parent="1" source="ZFWCI6rbcMhGmqInNy1j-2" target="sksLSkYZdCt6uy0x5Zyz-20" edge="1">
          <mxGeometry relative="1" as="geometry" />
        </mxCell>
        <mxCell id="ZFWCI6rbcMhGmqInNy1j-6" value="&amp;lt;&amp;lt;include&amp;gt;&amp;gt;" style="edgeLabel;html=1;align=center;verticalAlign=middle;resizable=0;points=[];" parent="ZFWCI6rbcMhGmqInNy1j-4" vertex="1" connectable="0">
          <mxGeometry x="-0.5966" y="-2" relative="1" as="geometry">
            <mxPoint as="offset" />
          </mxGeometry>
        </mxCell>
        <mxCell id="ZFWCI6rbcMhGmqInNy1j-2" value="Quản Lý Sinh Viên" style="ellipse;whiteSpace=wrap;html=1;fillColor=#dae8fc;strokeColor=#6c8ebf;" parent="1" vertex="1">
          <mxGeometry x="690" y="70" width="120" height="80" as="geometry" />
        </mxCell>
        <mxCell id="XRTRLFMjSl1A3E3SzHaw-4" style="rounded=0;orthogonalLoop=1;jettySize=auto;html=1;" parent="1" source="sksLSkYZdCt6uy0x5Zyz-1" target="5PdgZUG-WtJZ_N_17yhF-5" edge="1">
          <mxGeometry relative="1" as="geometry" />
        </mxCell>
        <mxCell id="PfDJLeCe6VTguh8s4rkP-1" style="rounded=0;orthogonalLoop=1;jettySize=auto;html=1;" parent="1" source="XliUAWEANQiwk1mUZGUS-1" target="sksLSkYZdCt6uy0x5Zyz-28" edge="1">
          <mxGeometry relative="1" as="geometry" />
        </mxCell>
      </root>
    </mxGraphModel>
  </diagram>
  <diagram id="YdGmXiDNryvtI-X3B00e" name="Trang-2">
    <mxGraphModel dx="934" dy="682" grid="1" gridSize="10" guides="1" tooltips="1" connect="1" arrows="1" fold="1" page="1" pageScale="1" pageWidth="827" pageHeight="1169" math="0" shadow="0">
      <root>
        <mxCell id="0" />
        <mxCell id="1" parent="0" />
      </root>
    </mxGraphModel>
  </diagram>
</mxfile>
